<?xml version="1.0" standalone="no"?>
<!DOCTYPE svg PUBLIC "-//W3C//DTD SVG 20010904//EN"
 "http://www.w3.org/TR/2001/REC-SVG-20010904/DTD/svg10.dtd">
<svg version="1.0" xmlns="http://www.w3.org/2000/svg"
 width="32.000000pt" height="32.000000pt" viewBox="0 0 32.000000 32.000000"
 preserveAspectRatio="xMidYMid meet">

<g transform="translate(0.000000,32.000000) scale(0.100000,-0.100000)"
fill="#000000" stroke="none">
<path d="M40 242 c0 -5 8 -12 19 -15 12 -3 21 -18 25 -43 4 -22 14 -49 21 -60
10 -16 11 -24 2 -33 -8 -8 -7 -15 6 -28 16 -16 18 -16 34 -1 13 14 14 20 3 32
-11 14 -8 16 25 16 33 0 36 -2 25 -16 -11 -12 -10 -18 3 -32 16 -15 18 -15 34
0 12 13 14 20 5 31 -7 8 -8 17 -2 23 5 5 16 31 24 57 l14 47 -84 0 c-49 0 -84
-4 -84 -10 0 -6 30 -10 70 -10 73 0 76 -2 60 -44 -9 -24 -15 -26 -65 -26 -36
0 -57 4 -59 13 -3 6 -10 32 -18 57 -10 34 -18 46 -35 48 -13 2 -23 -1 -23 -6z
m100 -162 c0 -5 -4 -10 -10 -10 -5 0 -10 5 -10 10 0 6 5 10 10 10 6 0 10 -4
10 -10z m90 0 c0 -5 -4 -10 -10 -10 -5 0 -10 5 -10 10 0 6 5 10 10 10 6 0 10
-4 10 -10z"/>
</g>
</svg>
