<?xml version="1.0" standalone="no"?>
<!DOCTYPE svg PUBLIC "-//W3C//DTD SVG 20010904//EN"
 "http://www.w3.org/TR/2001/REC-SVG-20010904/DTD/svg10.dtd">
<svg version="1.0" xmlns="http://www.w3.org/2000/svg"
 width="32.000000pt" height="32.000000pt" viewBox="0 0 32.000000 32.000000"
 preserveAspectRatio="xMidYMid meet">

<g transform="translate(0.000000,32.000000) scale(0.100000,-0.100000)"
fill="#000000" stroke="none">
<path d="M63 268 c-28 -14 -47 -60 -38 -95 7 -28 115 -143 135 -143 20 0 128
115 135 143 10 39 -11 83 -47 98 -26 11 -35 10 -60 -4 -27 -15 -32 -15 -51 -2
-25 17 -43 18 -74 3z m75 -24 c20 -14 24 -14 44 0 12 9 32 16 45 16 24 0 53
-34 53 -64 0 -29 -37 -82 -81 -116 l-39 -32 -39 32 c-44 34 -81 87 -81 116 0
30 29 64 53 64 13 0 33 -7 45 -16z"/>
</g>
</svg>
